<svg xmlns="http://www.w3.org/2000/svg" style="display: none;">
  <defs>
    <!-- Search Icon -->
    <symbol id="icon-search" viewBox="0 0 24 24">
      <path d="M15.5 14h-.79l-.28-.27A6.471 6.471 0 0 0 16 9.5 6.5 6.5 0 1 0 9.5 16c1.61 0 3.09-.59 4.23-1.57l.27.28v.79l5 4.99L20.49 19l-4.99-5zm-6 0C7.01 14 5 11.99 5 9.5S7.01 5 9.5 5 14 7.01 14 9.5 11.99 14 9.5 14z"/>
    </symbol>
    
    <!-- Document Icon -->
    <symbol id="icon-document" viewBox="0 0 24 24">
      <path d="M14,2H6A2,2 0 0,0 4,4V20A2,2 0 0,0 6,22H18A2,2 0 0,0 20,20V8L14,2M18,20H6V4H13V9H18V20Z"/>
    </symbol>
    
    <!-- Check Icon -->
    <symbol id="icon-check" viewBox="0 0 24 24">
      <path d="M9 16.17L4.83 12l-1.42 1.41L9 19 21 7l-1.41-1.41z"/>
    </symbol>
    
    <!-- Arrow Right Icon -->
    <symbol id="icon-arrow-right" viewBox="0 0 24 24">
      <path d="M8.59 16.59L13.17 12 8.59 7.41 10 6l6 6-6 6z"/>
    </symbol>
    
    <!-- Arrow Left Icon -->
    <symbol id="icon-arrow-left" viewBox="0 0 24 24">
      <path d="M15.41 16.59L10.83 12l4.58-4.59L14 6l-6 6 6 6z"/>
    </symbol>
    
    <!-- Download Icon -->
    <symbol id="icon-download" viewBox="0 0 24 24">
      <path d="M19 9h-4V3H9v6H5l7 7 7-7zM5 18v2h14v-2H5z"/>
    </symbol>
    
    <!-- Upload Icon -->
    <symbol id="icon-upload" viewBox="0 0 24 24">
      <path d="M9 16h6v-6h4l-7-7-7 7h4zm-4 2h14v2H5z"/>
    </symbol>
    
    <!-- Info Icon -->
    <symbol id="icon-info" viewBox="0 0 24 24">
      <path d="M12 2C6.48 2 2 6.48 2 12s4.48 10 10 10 10-4.48 10-10S17.52 2 12 2zm1 15h-2v-6h2v6zm0-8h-2V7h2v2z"/>
    </symbol>
    
    <!-- Warning Icon -->
    <symbol id="icon-warning" viewBox="0 0 24 24">
      <path d="M1 21h22L12 2 1 21zm12-3h-2v-2h2v2zm0-4h-2v-4h2v4z"/>
    </symbol>
    
    <!-- Close Icon -->
    <symbol id="icon-close" viewBox="0 0 24 24">
      <path d="M19 6.41L17.59 5 12 10.59 6.41 5 5 6.41 10.59 12 5 17.59 6.41 19 12 13.41 17.59 19 19 17.59 13.41 12z"/>
    </symbol>
    
    <!-- Calendar Icon -->
    <symbol id="icon-calendar" viewBox="0 0 24 24">
      <path d="M19 3h-1V1h-2v2H8V1H6v2H5c-1.11 0-1.99.9-1.99 2L3 19c0 1.1.89 2 2 2h14c1.1 0 2-.9 2-2V5c0-1.1-.9-2-2-2zm0 16H5V8h14v11zM7 10h5v5H7z"/>
    </symbol>
    
    <!-- Clock Icon -->
    <symbol id="icon-clock" viewBox="0 0 24 24">
      <path d="M11.99 2C6.47 2 2 6.48 2 12s4.47 10 9.99 10C17.52 22 22 17.52 22 12S17.52 2 11.99 2zM12 20c-4.42 0-8-3.58-8-8s3.58-8 8-8 8 3.58 8 8-3.58 8-8 8zm.5-13H11v6l5.25 3.15.75-1.23-4.5-2.67z"/>
    </symbol>
    
    <!-- Edit Icon -->
    <symbol id="icon-edit" viewBox="0 0 24 24">
      <path d="M3 17.25V21h3.75L17.81 9.94l-3.75-3.75L3 17.25zM20.71 7.04c.39-.39.39-1.02 0-1.41l-2.34-2.34c-.39-.39-1.02-.39-1.41 0l-1.83 1.83 3.75 3.75 1.83-1.83z"/>
    </symbol>
    
    <!-- Settings Icon -->
    <symbol id="icon-settings" viewBox="0 0 24 24">
      <path d="M19.43 12.98c.04-.32.07-.64.07-.98s-.03-.66-.07-.98l2.11-1.65c.19-.15.24-.42.12-.64l-2-3.46c-.12-.22-.39-.3-.61-.22l-2.49 1c-.52-.4-1.08-.73-1.69-.98l-.38-2.65C14.46 2.18 14.25 2 14 2h-4c-.25 0-.46.18-.49.42l-.38 2.65c-.61.25-1.17.59-1.69.98l-2.49-1c-.23-.09-.49 0-.61.22l-2 3.46c-.13.22-.07.49.12.64l2.11 1.65c-.04.32-.07.65-.07.98s.03.66.07.98l-2.11 1.65c-.19.15-.24.42-.12.64l2 3.46c.12.22.39.3.61.22l2.49-1c.52.4 1.08.73 1.69.98l.38 2.65c.03.24.24.42.49.42h4c.25 0 .46-.18.49-.42l.38-2.65c.61-.25 1.17-.59 1.69-.98l2.49 1c.23.09.49 0 .61-.22l2-3.46c.12-.22.07-.49-.12-.64l-2.11-1.65zM12 15.5c-1.93 0-3.5-1.57-3.5-3.5s1.57-3.5 3.5-3.5 3.5 1.57 3.5 3.5-1.57 3.5-3.5 3.5z"/>
    </symbol>
    
    <!-- Refresh Icon -->
    <symbol id="icon-refresh" viewBox="0 0 24 24">
      <path d="M17.65 6.35C16.2 4.9 14.21 4 12 4c-4.42 0-7.99 3.58-7.99 8s3.57 8 7.99 8c3.73 0 6.84-2.55 7.73-6h-2.08c-.82 2.33-3.04 4-5.65 4-3.31 0-6-2.69-6-6s2.69-6 6-6c1.66 0 3.14.69 4.22 1.78L13 11h7V4l-2.35 2.35z"/>
    </symbol>
    
    <!-- Home Icon -->
    <symbol id="icon-home" viewBox="0 0 24 24">
      <path d="M10 20v-6h4v6h5v-8h3L12 3 2 12h3v8z"/>
    </symbol>
    
    <!-- User Icon -->
    <symbol id="icon-user" viewBox="0 0 24 24">
      <path d="M12 12c2.21 0 4-1.79 4-4s-1.79-4-4-4-4 1.79-4 4 1.79 4 4 4zm0 2c-2.67 0-8 1.34-8 4v2h16v-2c0-2.66-5.33-4-8-4z"/>
    </symbol>
    
    <!-- Link Icon -->
    <symbol id="icon-link" viewBox="0 0 24 24">
      <path d="M3.9 12c0-1.71 1.39-3.1 3.1-3.1h4V7H7c-2.76 0-5 2.24-5 5s2.24 5 5 5h4v-1.9H7c-1.71 0-3.1-1.39-3.1-3.1zM8 13h8v-2H8v2zm9-6h-4v1.9h4c1.71 0 3.1 1.39 3.1 3.1s-1.39 3.1-3.1 3.1h-4V17h4c2.76 0 5-2.24 5-5s-2.24-5-5-5z"/>
    </symbol>
    
    <!-- Plus Icon -->
    <symbol id="icon-plus" viewBox="0 0 24 24">
      <path d="M19 13h-6v6h-2v-6H5v-2h6V5h2v6h6v2z"/>
    </symbol>
    
    <!-- Menu Icon -->
    <symbol id="icon-menu" viewBox="0 0 24 24">
      <path d="M3 18h18v-2H3v2zm0-5h18v-2H3v2zm0-7v2h18V6H3z"/>
    </symbol>
    
    <!-- Attachment Icon -->
    <symbol id="icon-attachment" viewBox="0 0 24 24">
      <path d="M2 12.5C2 9.46 4.46 7 7.5 7H18c2.21 0 4 1.79 4 4s-1.79 4-4 4H9.5C8.12 15 7 13.88 7 12.5S8.12 10 9.5 10H17v1.5H9.5c-.55 0-1 .45-1 1s.45 1 1 1H18c1.38 0 2.5-1.12 2.5-2.5S19.38 8.5 18 8.5H7.5c-2.21 0-4 1.79-4 4s1.79 4 4 4H17v1.5H7.5C4.46 18 2 15.54 2 12.5z"/>
    </symbol>
    
    <!-- AI Icon (legacy) -->
    <symbol id="icon-ai" viewBox="0 0 24 24">
      <path d="M21 10.12h-6.78l2.74-2.82c-2.73-2.7-7.15-2.8-9.88-.1-2.73 2.71-2.73 7.08 0 9.79s7.15 2.71 9.88 0C18.32 15.65 19 14.08 19 12.1h2c0 1.98-.88 4.55-2.64 6.29-3.51 3.48-9.21 3.48-12.72 0-3.5-3.47-3.53-9.11-.02-12.58s9.14-3.47 12.65 0L21 3v7.12zM12.5 8v4.25l3.5 2.08-.72 1.21L11 13V8h1.5z"/>
    </symbol>

    <!-- Sparkles/Magic Icon for AI features -->
    <symbol id="icon-magic" viewBox="0 0 24 24">
      <path d="M8.5 3l1 2.5L12 6.5 9.5 7.5 8.5 10 7.5 7.5 5 6.5l2.5-1L8.5 3zm9 2l1.25 3.25L22 9.5l-3.25 1.25L17.5 14l-1.25-3.25L13 9.5l3.25-1.25L17.5 5zm-9 7l1.5 4 4 1.5-4 1.5-1.5 4-1.5-4-4-1.5 4-1.5 1.5-4z"/>
    </symbol>
  </defs>
</svg>